<?xml version="1.0" encoding="utf-8"?>
<!-- Generator: Adobe Illustrator 24.1.1, SVG Export Plug-In . SVG Version: 6.00 Build 0)  -->
<svg version="1.1" id="Layer_1" xmlns="http://www.w3.org/2000/svg" xmlns:xlink="http://www.w3.org/1999/xlink" x="0px" y="0px"
	 viewBox="0 0 512 512" style="enable-background:new 0 0 512 512;" xml:space="preserve">
<style type="text/css">
	.st0{fill:#E0995E;}
	.st1{fill:#BA8152;}
	.st2{fill:#E0E0D1;}
	.st3{fill:#BAB9AE;}
	.st4{fill:#FFFFFF;}
	.st5{fill:#9C9A92;}
</style>
<g id="XMLID_1_">
	<path id="XMLID_3_" class="st0" d="M256,0c141,0,256,115,256,256S397,512,256,512S0,397,0,256S115,0,256,0"/>
	<path id="XMLID_4_" class="st1" d="M127.6,136.3L127.6,136.3V408c0,13.4,10.2,23.6,23.6,23.6h208c13.4,0,23.6-10.2,23.6-23.6v-15.8
		c0,13.4-10.2,23.6-23.6,23.6H152c-13.4,0-23.6-10.2-23.6-23.6v-256"/>
	<path id="XMLID_5_" class="st2" d="M288.3,167.8V96.1H152c-13.4,0-23.6,10.2-23.6,23.6v271.8c0,13.4,10.2,23.6,23.6,23.6h208
		c13.4,0,23.6-10.2,23.6-23.6V192.2h-71.7C298.5,192.2,288.3,182,288.3,167.8"/>
	<path id="XMLID_6_" class="st1" d="M296.2,186.7c3.9,3.2,9.5,5.5,15.8,5.5h71.7v71.7v-71.7L296.2,186.7"/>
	<path id="XMLID_7_" class="st3" d="M296.2,186.7l33.9,29.9h6.3v5.5l48,42.5V193h-71.7C305.6,192.2,300.1,189.8,296.2,186.7
		L296.2,186.7"/>
	<path id="XMLID_8_" class="st4" d="M288.3,96.1v71.7c0,13.4,10.2,23.6,23.6,23.6h71.7L288.3,96.1z"/>
	<polyline id="XMLID_9_" class="st3" points="252.8,175.7 175.7,175.7 175.7,192.2 252.8,192.2 252.8,175.7 	"/>
	<polyline id="XMLID_10_" class="st3" points="336.3,256 175.7,256 175.7,271.8 336.3,271.8 336.3,256 	"/>
	<polyline id="XMLID_11_" class="st3" points="329.3,215.8 175.7,215.8 175.7,232.4 336.3,232.4 336.3,221.3 329.3,215.8 	"/>
	<polyline id="XMLID_12_" class="st5" points="336.3,215.8 329.3,215.8 336.3,221.3 336.3,215.8 	"/>
	<polyline id="XMLID_13_" class="st3" points="336.3,296.2 175.7,296.2 175.7,311.9 336.3,311.9 336.3,296.2 	"/>
	<polyline id="XMLID_14_" class="st3" points="336.3,336.3 175.7,336.3 175.7,352.1 336.3,352.1 336.3,336.3 	"/>
</g>
</svg>
